Topmarks-Book-2.ufo
<glyph name="numbersign" format="1">
  <advance width="1388"/>
  <unicode hex="0023"/>
  <outline>
    <contour>
      <point x="305" y="0" type="line"/>
      <point x="389" y="465" type="line"/>
      <point x="137" y="465" type="line"/>
      <point x="145" y="583" type="line"/>
      <point x="409" y="583" type="line"/>
      <point x="460" y="899" type="line"/>
      <point x="202" y="899" type="line"/>
      <point x="215" y="1026" type="line"/>
      <point x="481" y="1026" type="line"/>
      <point x="557" y="1455" type="line"/>
      <point x="687" y="1455" type="line"/>
      <point x="613" y="1026" type="line"/>
      <point x="884" y="1026" type="line"/>
      <point x="957" y="1455" type="line"/>
      <point x="1090" y="1455" type="line"/>
      <point x="1012" y="1026" type="line"/>
      <point x="1253" y="1026" type="line"/>
      <point x="1239" y="899" type="line"/>
      <point x="990" y="899" type="line"/>
      <point x="938" y="583" type="line"/>
      <point x="1187" y="583" type="line"/>
      <point x="1176" y="465" type="line"/>
      <point x="920" y="465" type="line"/>
      <point x="840" y="0" type="line"/>
      <point x="711" y="0" type="line"/>
      <point x="788" y="465" type="line"/>
      <point x="517" y="465" type="line"/>
      <point x="438" y="0" type="line"/>
    </contour>
    <contour>
      <point x="535" y="583" type="line"/>
      <point x="809" y="583" type="line"/>
      <point x="861" y="899" type="line"/>
      <point x="590" y="899" type="line"/>
    </contour>
  </outline>
</glyph>
<glyph name="percent" format="1">
  <advance width="1788"/>
  <unicode hex="0025"/>
  <outline>
    <contour>
      <point x="366" y="0" type="line"/>
      <point x="1266" y="1560" type="line"/>
      <point x="1415" y="1560" type="line"/>
      <point x="520" y="0" type="line"/>
    </contour>
    <contour>
      <point x="1353" y="-24" type="curve" smooth="yes"/>
      <point x="1125" y="-24"/>
      <point x="1009" y="149"/>
      <point x="1009" y="354" type="curve" smooth="yes"/>
      <point x="1009" y="593"/>
      <point x="1153" y="738"/>
      <point x="1358" y="738" type="curve" smooth="yes"/>
      <point x="1577" y="738"/>
      <point x="1701" y="585"/>
      <point x="1701" y="359" type="curve" smooth="yes"/>
      <point x="1701" y="121"/>
      <point x="1557" y="-24"/>
    </contour>
    <contour>
      <point x="435" y="937" type="curve" smooth="yes"/>
      <point x="576" y="937"/>
      <point x="636" y="1062"/>
      <point x="636" y="1208" type="curve" smooth="yes"/>
      <point x="636" y="1355"/>
      <point x="576" y="1473"/>
      <point x="436" y="1473" type="curve" smooth="yes"/>
      <point x="294" y="1473"/>
      <point x="232" y="1348"/>
      <point x="232" y="1201" type="curve" smooth="yes"/>
      <point x="232" y="1046"/>
      <point x="297" y="937"/>
    </contour>
    <contour>
      <point x="1356" y="89" type="curve" smooth="yes"/>
      <point x="1497" y="89"/>
      <point x="1557" y="214"/>
      <point x="1557" y="360" type="curve" smooth="yes"/>
      <point x="1557" y="507"/>
      <point x="1497" y="625"/>
      <point x="1357" y="625" type="curve" smooth="yes"/>
      <point x="1215" y="625"/>
      <point x="1153" y="500"/>
      <point x="1153" y="353" type="curve" smooth="yes"/>
      <point x="1153" y="198"/>
      <point x="1218" y="89"/>
    </contour>
    <contour>
      <point x="432" y="824" type="curve" smooth="yes"/>
      <point x="204" y="824"/>
      <point x="88" y="997"/>
      <point x="88" y="1202" type="curve" smooth="yes"/>
      <point x="88" y="1441"/>
      <point x="232" y="1586"/>
      <point x="437" y="1586" type="curve" smooth="yes"/>
      <point x="656" y="1586"/>
      <point x="780" y="1433"/>
      <point x="780" y="1207" type="curve" smooth="yes"/>
      <point x="780" y="969"/>
      <point x="636" y="824"/>
    </contour>
  </outline>
</glyph>
<glyph name="plus" format="1">
  <advance width="1383"/>
  <unicode hex="002B"/>
  <outline>
    <contour>
      <point x="616" y="202" type="line"/>
      <point x="616" y="675" type="line"/>
      <point x="195" y="675" type="line"/>
      <point x="195" y="814" type="line"/>
      <point x="619" y="814" type="line"/>
      <point x="619" y="1282" type="line"/>
      <point x="767" y="1282" type="line"/>
      <point x="767" y="814" type="line"/>
      <point x="1188" y="814" type="line"/>
      <point x="1188" y="675" type="line"/>
      <point x="765" y="675" type="line"/>
      <point x="765" y="202" type="line"/>
    </contour>
  </outline>
</glyph>
<glyph name="question" format="1">
  <advance width="990"/>
  <unicode hex="003F"/>
  <outline>
    <contour>
      <point x="680" y="1228" type="curve" smooth="yes"/>
      <point x="680" y="1379"/>
      <point x="562" y="1436"/>
      <point x="424" y="1436" type="curve" smooth="yes"/>
      <point x="324" y="1436"/>
      <point x="210" y="1404"/>
      <point x="140" y="1365" type="curve"/>
      <point x="140" y="1516" type="line"/>
      <point x="220" y="1555"/>
      <point x="323" y="1586"/>
      <point x="429" y="1586" type="curve" smooth="yes"/>
      <point x="706" y="1586"/>
      <point x="849" y="1441"/>
      <point x="849" y="1236" type="curve" smooth="yes"/>
      <point x="849" y="863"/>
      <point x="438" y="711"/>
      <point x="438" y="401" type="curve"/>
      <point x="313" y="401" type="line"/>
      <point x="313" y="763"/>
      <point x="680" y="892"/>
    </contour>
    <contour>
      <point x="382" y="0" type="curve" smooth="yes"/>
      <point x="313" y="0"/>
      <point x="275" y="49"/>
      <point x="275" y="106" type="curve" smooth="yes"/>
      <point x="275" y="172"/>
      <point x="329" y="211"/>
      <point x="383" y="211" type="curve" smooth="yes"/>
      <point x="451" y="211"/>
      <point x="488" y="162"/>
      <point x="488" y="105" type="curve" smooth="yes"/>
      <point x="488" y="39"/>
      <point x="436" y="0"/>
    </contour>
  </outline>
</glyph>
<glyph name="B" format="1">
  <advance width="1360"/>
  <unicode hex="0042"/>
  <outline>
    <contour>
      <point x="198" y="0" type="line"/>
      <point x="198" y="1560" type="line"/>
      <point x="603" y="1560" type="line" smooth="yes"/>
      <point x="973" y="1560"/>
      <point x="1162" y="1454"/>
      <point x="1162" y="1184" type="curve" smooth="yes"/>
      <point x="1162" y="983"/>
      <point x="1071" y="882"/>
      <point x="909" y="824" type="curve"/>
      <point x="1110" y="782"/>
      <point x="1230" y="669"/>
      <point x="1230" y="432" type="curve" smooth="yes"/>
      <point x="1230" y="122"/>
      <point x="992" y="0"/>
      <point x="650" y="0" type="curve" smooth="yes"/>
    </contour>
    <contour>
      <point x="372" y="138" type="line"/>
      <point x="644" y="138" type="line" smooth="yes"/>
      <point x="908" y="138"/>
      <point x="1048" y="229"/>
      <point x="1048" y="435" type="curve" smooth="yes"/>
      <point x="1048" y="645"/>
      <point x="909" y="733"/>
      <point x="604" y="733" type="curve" smooth="yes"/>
      <point x="372" y="733" type="line"/>
    </contour>
    <contour>
      <point x="372" y="884" type="line"/>
      <point x="574" y="884" type="line" smooth="yes"/>
      <point x="852" y="884"/>
      <point x="983" y="962"/>
      <point x="983" y="1154" type="curve" smooth="yes"/>
      <point x="983" y="1339"/>
      <point x="890" y="1422"/>
      <point x="603" y="1422" type="curve" smooth="yes"/>
      <point x="372" y="1422" type="line"/>
    </contour>
  </outline>
</glyph>
<glyph name="D" format="1">
  <advance width="1528"/>
  <unicode hex="0044"/>
  <outline>
    <contour>
      <point x="372" y="138" type="line"/>
      <point x="607" y="138" type="line" smooth="yes"/>
      <point x="1008" y="138"/>
      <point x="1223" y="366"/>
      <point x="1220" y="775" type="curve" smooth="yes"/>
      <point x="1217" y="1248"/>
      <point x="1005" y="1422"/>
      <point x="533" y="1422" type="curve" smooth="yes"/>
      <point x="372" y="1422" type="line"/>
    </contour>
    <contour>
      <point x="198" y="0" type="line"/>
      <point x="198" y="1560" type="line"/>
      <point x="529" y="1560" type="line" smooth="yes"/>
      <point x="1115" y="1560"/>
      <point x="1397" y="1327"/>
      <point x="1402" y="778" type="curve" smooth="yes"/>
      <point x="1406" y="294"/>
      <point x="1122" y="0"/>
      <point x="596" y="0" type="curve" smooth="yes"/>
    </contour>
  </outline>
</glyph>
<glyph name="M" format="1">
  <advance width="1942"/>
  <unicode hex="004D"/>
  <outline>
    <contour>
      <point x="198" y="0" type="line"/>
      <point x="198" y="1560" type="line"/>
      <point x="424" y="1560" type="line"/>
      <point x="607" y="1180"/>
      <point x="791" y="802"/>
      <point x="972" y="420" type="curve"/>
      <point x="1152" y="806"/>
      <point x="1346" y="1179"/>
      <point x="1532" y="1560" type="curve"/>
      <point x="1744" y="1560" type="line"/>
      <point x="1744" y="0" type="line"/>
      <point x="1579" y="0" type="line"/>
      <point x="1579" y="1333" type="line"/>
      <point x="1394" y="964"/>
      <point x="1213" y="591"/>
      <point x="1030" y="220" type="curve"/>
      <point x="909" y="220" type="line"/>
      <point x="435" y="1190" type="line"/>
      <point x="365" y="1350" type="line"/>
      <point x="365" y="0" type="line"/>
    </contour>
  </outline>
</glyph>
<glyph name="N" format="1">
  <advance width="1583"/>
  <unicode hex="004E"/>
  <outline>
    <contour>
      <point x="198" y="0" type="line"/>
      <point x="198" y="1560" type="line"/>
      <point x="403" y="1560" type="line"/>
      <point x="673" y="1111"/>
      <point x="946" y="665"/>
      <point x="1214" y="215" type="curve"/>
      <point x="1214" y="1560" type="line"/>
      <point x="1385" y="1560" type="line"/>
      <point x="1385" y="0" type="line"/>
      <point x="1178" y="0" type="line"/>
      <point x="439" y="1217" type="line"/>
      <point x="370" y="1341" type="line"/>
      <point x="370" y="0" type="line"/>
    </contour>
  </outline>
</glyph>
<glyph name="R" format="1">
  <advance width="1345"/>
  <unicode hex="0052"/>
  <outline>
    <contour>
      <point x="198" y="0" type="line"/>
      <point x="198" y="1560" type="line"/>
      <point x="603" y="1560" type="line" smooth="yes"/>
      <point x="925" y="1560"/>
      <point x="1173" y="1508"/>
      <point x="1173" y="1176" type="curve" smooth="yes"/>
      <point x="1173" y="982"/>
      <point x="1083" y="833"/>
      <point x="837" y="780" type="curve"/>
      <point x="1242" y="0" type="line"/>
      <point x="1050" y="0" type="line"/>
      <point x="672" y="756" type="line"/>
      <point x="372" y="756" type="line"/>
      <point x="372" y="0" type="line"/>
    </contour>
    <contour>
      <point x="372" y="903" type="line"/>
      <point x="681" y="903" type="line" smooth="yes"/>
      <point x="870" y="903"/>
      <point x="1002" y="963"/>
      <point x="1002" y="1162" type="curve" smooth="yes"/>
      <point x="1002" y="1373"/>
      <point x="887" y="1422"/>
      <point x="692" y="1422" type="curve" smooth="yes"/>
      <point x="372" y="1422" type="line"/>
    </contour>
  </outline>
</glyph>
<glyph name="T" format="1">
  <advance width="1124"/>
  <unicode hex="0054"/>
  <outline>
    <contour>
      <point x="478" y="0" type="line"/>
      <point x="478" y="1422" type="line"/>
      <point x="27" y="1422" type="line"/>
      <point x="27" y="1560" type="line"/>
      <point x="1098" y="1560" type="line"/>
      <point x="1098" y="1422" type="line"/>
      <point x="652" y="1422" type="line"/>
      <point x="652" y="0" type="line"/>
    </contour>
  </outline>
</glyph>
<glyph name="W" format="1">
  <advance width="2120"/>
  <unicode hex="0057"/>
  <outline>
    <contour>
      <point x="470" y="0" type="line"/>
      <point x="67" y="1560" type="line"/>
      <point x="250" y="1560" type="line"/>
      <point x="543" y="349" type="line"/>
      <point x="581" y="178" type="line"/>
      <point x="715" y="638"/>
      <point x="848" y="1099"/>
      <point x="981" y="1560" type="curve"/>
      <point x="1154" y="1560" type="line"/>
      <point x="1285" y="1099"/>
      <point x="1418" y="641"/>
      <point x="1547" y="179" type="curve"/>
      <point x="1659" y="637"/>
      <point x="1767" y="1100"/>
      <point x="1877" y="1560" type="curve"/>
      <point x="2054" y="1560" type="line"/>
      <point x="1651" y="0" type="line"/>
      <point x="1439" y="0" type="line"/>
      <point x="1062" y="1354" type="line"/>
      <point x="681" y="0" type="line"/>
    </contour>
  </outline>
</glyph>
<glyph name="X" format="1">
  <advance width="1360"/>
  <unicode hex="0058"/>
  <outline>
    <contour>
      <point x="1099" y="0" type="line"/>
      <point x="681" y="697" type="line"/>
      <point x="265" y="0" type="line"/>
      <point x="61" y="0" type="line"/>
      <point x="585" y="815" type="line"/>
      <point x="100" y="1560" type="line"/>
      <point x="306" y="1560" type="line"/>
      <point x="694" y="928" type="line"/>
      <point x="1094" y="1560" type="line"/>
      <point x="1290" y="1560" type="line"/>
      <point x="792" y="816" type="line"/>
      <point x="1300" y="0" type="line"/>
    </contour>
  </outline>
</glyph>
<glyph name="Y" format="1">
  <advance width="1269"/>
  <unicode hex="0059"/>
  <outline>
    <contour>
      <point x="547" y="0" type="line"/>
      <point x="547" y="652" type="line"/>
      <point x="26" y="1560" type="line"/>
      <point x="218" y="1560" type="line"/>
      <point x="634" y="797" type="line"/>
      <point x="1054" y="1560" type="line"/>
      <point x="1244" y="1560" type="line"/>
      <point x="721" y="655" type="line"/>
      <point x="721" y="0" type="line"/>
    </contour>
  </outline>
</glyph>
<glyph name="bracketleft" format="1">
  <advance width="731"/>
  <unicode hex="005B"/>
  <outline>
    <contour>
      <point x="194" y="-200" type="line"/>
      <point x="194" y="1510" type="line"/>
      <point x="550" y="1510" type="line"/>
      <point x="550" y="1388" type="line"/>
      <point x="357" y="1388" type="line"/>
      <point x="357" y="-78" type="line"/>
      <point x="551" y="-78" type="line"/>
      <point x="551" y="-200" type="line"/>
    </contour>
  </outline>
</glyph>
<glyph name="bracketright" format="1">
  <advance width="731"/>
  <unicode hex="005D"/>
  <outline>
    <contour>
      <point x="538" y="1510" type="line"/>
      <point x="538" y="-200" type="line"/>
      <point x="182" y="-200" type="line"/>
      <point x="182" y="-78" type="line"/>
      <point x="375" y="-78" type="line"/>
      <point x="375" y="1388" type="line"/>
      <point x="181" y="1388" type="line"/>
      <point x="181" y="1510" type="line"/>
    </contour>
  </outline>
</glyph>
<glyph name="asciicircum" format="1">
  <advance width="1390"/>
  <unicode hex="005E"/>
  <outline>
    <contour>
      <point x="172" y="550" type="line"/>
      <point x="644" y="1432" type="line"/>
      <point x="741" y="1432" type="line"/>
      <point x="1220" y="550" type="line"/>
      <point x="1065" y="550" type="line"/>
      <point x="691" y="1260" type="line"/>
      <point x="328" y="550" type="line"/>
    </contour>
  </outline>
</glyph>
<glyph name="b" format="1">
  <advance width="1196"/>
  <unicode hex="0062"/>
  <outline>
    <contour>
      <point x="591" y="-22" type="curve" smooth="yes"/>
      <point x="358" y="-22"/>
      <point x="181" y="71"/>
      <point x="181" y="71" type="curve"/>
      <point x="181" y="1560" type="line"/>
      <point x="351" y="1560" type="line"/>
      <point x="351" y="879" type="line"/>
      <point x="443" y="1013"/>
      <point x="552" y="1052"/>
      <point x="687" y="1052" type="curve" smooth="yes"/>
      <point x="910" y="1052"/>
      <point x="1090" y="865"/>
      <point x="1090" y="545" type="curve" smooth="yes"/>
      <point x="1090" y="215"/>
      <point x="895" y="-22"/>
    </contour>
    <contour>
      <point x="582" y="114" type="curve" smooth="yes"/>
      <point x="806" y="114"/>
      <point x="916" y="309"/>
      <point x="916" y="550" type="curve" smooth="yes"/>
      <point x="916" y="793"/>
      <point x="800" y="920"/>
      <point x="658" y="920" type="curve" smooth="yes"/>
      <point x="445" y="920"/>
      <point x="351" y="728"/>
      <point x="351" y="538" type="curve" smooth="yes"/>
      <point x="351" y="151" type="line"/>
      <point x="351" y="151"/>
      <point x="434" y="114"/>
    </contour>
  </outline>
</glyph>
<glyph name="c" format="1">
  <advance width="1030"/>
  <unicode hex="0063"/>
  <outline>
    <contour>
      <point x="985" y="100" type="line"/>
      <point x="600" y="-164"/>
      <point x="106" y="11"/>
      <point x="106" y="511" type="curve" smooth="yes"/>
      <point x="106" y="996"/>
      <point x="575" y="1191"/>
      <point x="956" y="942" type="curve"/>
      <point x="898" y="825" type="line"/>
      <point x="625" y="1011"/>
      <point x="280" y="925"/>
      <point x="280" y="510" type="curve" smooth="yes"/>
      <point x="280" y="58"/>
      <point x="687" y="36"/>
      <point x="927" y="219" type="curve"/>
    </contour>
  </outline>
</glyph>
<glyph name="e" format="1">
  <advance width="1070"/>
  <unicode hex="0065"/>
  <outline>
    <contour>
      <point x="106" y="505" type="curve" smooth="yes"/>
      <point x="103" y="803"/>
      <point x="282" y="1052"/>
      <point x="612" y="1052" type="curve" smooth="yes"/>
      <point x="819" y="1052"/>
      <point x="951" y="922"/>
      <point x="951" y="755" type="curve" smooth="yes"/>
      <point x="951" y="510"/>
      <point x="613" y="398"/>
      <point x="290" y="398" type="curve"/>
      <point x="384" y="-28"/>
      <point x="813" y="121"/>
      <point x="922" y="219" type="curve"/>
      <point x="980" y="100" type="line"/>
      <point x="672" y="-137"/>
      <point x="111" y="-44"/>
    </contour>
    <contour>
      <point x="279" y="519" type="curve"/>
      <point x="485" y="519"/>
      <point x="788" y="597"/>
      <point x="788" y="758" type="curve" smooth="yes"/>
      <point x="788" y="852"/>
      <point x="715" y="920"/>
      <point x="600" y="920" type="curve" smooth="yes"/>
      <point x="418" y="920"/>
      <point x="280" y="761"/>
    </contour>
  </outline>
</glyph>
<glyph name="f" format="1">
  <advance width="750"/>
  <unicode hex="0066"/>
  <outline>
    <contour>
      <point x="407" y="0" type="line"/>
      <point x="237" y="0" type="line"/>
      <point x="237" y="920" type="line"/>
      <point x="35" y="920" type="line"/>
      <point x="35" y="1026" type="line"/>
      <point x="237" y="1026" type="line"/>
      <point x="237" y="1147" type="line" smooth="yes"/>
      <point x="237" y="1380"/>
      <point x="334" y="1560"/>
      <point x="714" y="1560" type="curve"/>
      <point x="731" y="1424" type="line"/>
      <point x="492" y="1424"/>
      <point x="407" y="1336"/>
      <point x="407" y="1159" type="curve" smooth="yes"/>
      <point x="407" y="1026" type="line"/>
      <point x="666" y="1026" type="line"/>
      <point x="666" y="920" type="line"/>
      <point x="407" y="920" type="line"/>
    </contour>
  </outline>
</glyph>
<glyph name="p" format="1">
  <advance width="1194"/>
  <unicode hex="0070"/>
  <outline>
    <contour>
      <point x="351" y="-574" type="line"/>
      <point x="181" y="-574" type="line"/>
      <point x="181" y="634" type="line" smooth="yes"/>
      <point x="181" y="833"/>
      <point x="138" y="1026"/>
      <point x="138" y="1026" type="curve"/>
      <point x="309" y="1026" type="line"/>
      <point x="309" y="1026"/>
      <point x="326" y="963"/>
      <point x="338" y="870" type="curve"/>
      <point x="398" y="969"/>
      <point x="499" y="1052"/>
      <point x="674" y="1052" type="curve" smooth="yes"/>
      <point x="925" y="1052"/>
      <point x="1088" y="853"/>
      <point x="1088" y="543" type="curve" smooth="yes"/>
      <point x="1088" y="186"/>
      <point x="886" y="-22"/>
      <point x="596" y="-22" type="curve" smooth="yes"/>
      <point x="503" y="-22"/>
      <point x="417" y="-1"/>
      <point x="351" y="22" type="curve"/>
    </contour>
    <contour>
      <point x="351" y="161" type="line"/>
      <point x="414" y="135"/>
      <point x="487" y="110"/>
      <point x="570" y="110" type="curve" smooth="yes"/>
      <point x="763" y="110"/>
      <point x="914" y="239"/>
      <point x="914" y="541" type="curve" smooth="yes"/>
      <point x="914" y="785"/>
      <point x="817" y="920"/>
      <point x="639" y="920" type="curve" smooth="yes"/>
      <point x="436" y="920"/>
      <point x="351" y="721"/>
      <point x="351" y="500" type="curve" smooth="yes"/>
    </contour>
  </outline>
</glyph>
<glyph name="s" format="1">
  <advance width="890"/>
  <unicode hex="0073"/>
  <outline>
    <contour>
      <point x="804" y="290" type="curve" smooth="yes"/>
      <point x="804" y="91"/>
      <point x="661" y="-22"/>
      <point x="462" y="-22" type="curve" smooth="yes"/>
      <point x="292" y="-22"/>
      <point x="166" y="38"/>
      <point x="105" y="75" type="curve"/>
      <point x="157" y="206" type="line"/>
      <point x="233" y="156"/>
      <point x="353" y="110"/>
      <point x="453" y="110" type="curve" smooth="yes"/>
      <point x="552" y="110"/>
      <point x="641" y="155"/>
      <point x="641" y="272" type="curve" smooth="yes"/>
      <point x="641" y="365"/>
      <point x="597" y="392"/>
      <point x="438" y="465" type="curve" smooth="yes"/>
      <point x="294" y="532"/>
      <point x="113" y="575"/>
      <point x="113" y="771" type="curve" smooth="yes"/>
      <point x="113" y="961"/>
      <point x="268" y="1052"/>
      <point x="460" y="1052" type="curve" smooth="yes"/>
      <point x="596" y="1052"/>
      <point x="701" y="1013"/>
      <point x="771" y="976" type="curve"/>
      <point x="733" y="838" type="line"/>
      <point x="649" y="887"/>
      <point x="551" y="920"/>
      <point x="469" y="920" type="curve" smooth="yes"/>
      <point x="366" y="920"/>
      <point x="283" y="872"/>
      <point x="283" y="784" type="curve" smooth="yes"/>
      <point x="283" y="695"/>
      <point x="365" y="670"/>
      <point x="514" y="601" type="curve" smooth="yes"/>
      <point x="678" y="525"/>
      <point x="804" y="468"/>
    </contour>
  </outline>
</glyph>
<glyph name="y" format="1">
  <advance width="1197"/>
  <unicode hex="0079"/>
  <outline>
    <contour>
      <point x="871" y="114" type="line"/>
      <point x="800" y="33"/>
      <point x="706" y="-22"/>
      <point x="564" y="-22" type="curve" smooth="yes"/>
      <point x="382" y="-22"/>
      <point x="176" y="76"/>
      <point x="176" y="349" type="curve" smooth="yes"/>
      <point x="176" y="365" type="line"/>
      <point x="182" y="582" type="line" smooth="yes"/>
      <point x="183" y="617"/>
      <point x="183" y="649"/>
      <point x="183" y="679" type="curve" smooth="yes"/>
      <point x="183" y="927"/>
      <point x="154" y="1026"/>
      <point x="154" y="1026" type="curve"/>
      <point x="325" y="1026" type="line"/>
      <point x="325" y="1026"/>
      <point x="354" y="959"/>
      <point x="354" y="699" type="curve" smooth="yes"/>
      <point x="354" y="667"/>
      <point x="354" y="633"/>
      <point x="353" y="595" type="curve" smooth="yes"/>
      <point x="347" y="365" type="line"/>
      <point x="347" y="354" type="line" smooth="yes"/>
      <point x="347" y="165"/>
      <point x="474" y="110"/>
      <point x="588" y="110" type="curve" smooth="yes"/>
      <point x="746" y="110"/>
      <point x="871" y="230"/>
      <point x="871" y="427" type="curve" smooth="yes"/>
      <point x="871" y="1026" type="line"/>
      <point x="1041" y="1026" type="line"/>
      <point x="1041" y="9" type="line" smooth="yes"/>
      <point x="1041" y="-309"/>
      <point x="880" y="-566"/>
      <point x="532" y="-566" type="curve" smooth="yes"/>
      <point x="444" y="-566"/>
      <point x="344" y="-549"/>
      <point x="231" y="-513" type="curve"/>
      <point x="249" y="-370" type="line"/>
      <point x="354" y="-407"/>
      <point x="445" y="-424"/>
      <point x="524" y="-424" type="curve" smooth="yes"/>
      <point x="756" y="-424"/>
      <point x="871" y="-272"/>
      <point x="871" y="-12" type="curve" smooth="yes"/>
    </contour>
  </outline>
</glyph>
<glyph name="braceright" format="1">
  <advance width="747"/>
  <unicode hex="007D"/>
  <outline>
    <contour>
      <point x="91" y="1480" type="line"/>
      <point x="315" y="1474"/>
      <point x="473" y="1383"/>
      <point x="473" y="1186" type="curve" smooth="yes"/>
      <point x="473" y="936" type="line" smooth="yes"/>
      <point x="473" y="806"/>
      <point x="525" y="707"/>
      <point x="665" y="695" type="curve"/>
      <point x="665" y="560" type="line"/>
      <point x="550" y="552"/>
      <point x="474" y="472"/>
      <point x="473" y="343" type="curve"/>
      <point x="473" y="99" type="line" smooth="yes"/>
      <point x="473" y="-95"/>
      <point x="352" y="-225"/>
      <point x="90" y="-225" type="curve"/>
      <point x="90" y="-82" type="line"/>
      <point x="203" y="-80"/>
      <point x="306" y="-26"/>
      <point x="306" y="107" type="curve" smooth="yes"/>
      <point x="306" y="380" type="line" smooth="yes"/>
      <point x="306" y="519"/>
      <point x="380" y="598"/>
      <point x="485" y="630" type="curve"/>
      <point x="368" y="673"/>
      <point x="306" y="788"/>
      <point x="306" y="895" type="curve" smooth="yes"/>
      <point x="306" y="1127" type="line" smooth="yes"/>
      <point x="306" y="1297"/>
      <point x="202" y="1337"/>
      <point x="91" y="1337" type="curve"/>
    </contour>
  </outline>
</glyph>
<glyph name="brokenbar" format="1">
  <advance width="557"/>
  <unicode hex="00A6"/>
  <outline>
    <contour>
      <point x="200" y="-491" type="line"/>
      <point x="200" y="393" type="line"/>
      <point x="357" y="393" type="line"/>
      <point x="357" y="-491" type="line"/>
    </contour>
    <contour>
      <point x="200" y="677" type="line"/>
      <point x="200" y="1545" type="line"/>
      <point x="357" y="1545" type="line"/>
      <point x="357" y="677" type="line"/>
    </contour>
  </outline>
</glyph>
<glyph name="section" format="1">
  <advance width="1071"/>
  <unicode hex="00A7"/>
  <outline>
    <contour>
      <point x="473" y="-24" type="curve" smooth="yes"/>
      <point x="375" y="-24"/>
      <point x="284" y="-4"/>
      <point x="208" y="27" type="curve"/>
      <point x="206" y="172" type="line"/>
      <point x="289" y="136"/>
      <point x="368" y="110"/>
      <point x="468" y="110" type="curve" smooth="yes"/>
      <point x="595" y="110"/>
      <point x="697" y="172"/>
      <point x="697" y="260" type="curve" smooth="yes"/>
      <point x="697" y="371"/>
      <point x="600" y="385"/>
      <point x="495" y="431" type="curve" smooth="yes"/>
      <point x="415" y="466" type="line" smooth="yes"/>
      <point x="296" y="518"/>
      <point x="181" y="599"/>
      <point x="181" y="734" type="curve" smooth="yes"/>
      <point x="181" y="861"/>
      <point x="282" y="931"/>
      <point x="370" y="974" type="curve"/>
      <point x="285" y="1025"/>
      <point x="217" y="1087"/>
      <point x="217" y="1211" type="curve" smooth="yes"/>
      <point x="217" y="1405"/>
      <point x="397" y="1480"/>
      <point x="589" y="1480" type="curve" smooth="yes"/>
      <point x="678" y="1480"/>
      <point x="738" y="1462"/>
      <point x="813" y="1440" type="curve"/>
      <point x="815" y="1296" type="line"/>
      <point x="755" y="1323"/>
      <point x="675" y="1346"/>
      <point x="594" y="1346" type="curve" smooth="yes"/>
      <point x="489" y="1346"/>
      <point x="388" y="1319"/>
      <point x="388" y="1215" type="curve" smooth="yes"/>
      <point x="388" y="1135"/>
      <point x="440" y="1100"/>
      <point x="496" y="1069" type="curve" smooth="yes"/>
      <point x="648" y="985"/>
      <point x="892" y="931"/>
      <point x="892" y="742" type="curve" smooth="yes"/>
      <point x="892" y="614"/>
      <point x="789" y="541"/>
      <point x="706" y="491" type="curve"/>
      <point x="791" y="449"/>
      <point x="869" y="392"/>
      <point x="869" y="269" type="curve" smooth="yes"/>
      <point x="869" y="57"/>
      <point x="685" y="-24"/>
    </contour>
    <contour>
      <point x="578" y="557" type="curve"/>
      <point x="640" y="596"/>
      <point x="714" y="649"/>
      <point x="714" y="728" type="curve" smooth="yes"/>
      <point x="714" y="849"/>
      <point x="563" y="887"/>
      <point x="486" y="920" type="curve"/>
      <point x="428" y="889"/>
      <point x="358" y="834"/>
      <point x="358" y="746" type="curve" smooth="yes"/>
      <point x="358" y="622"/>
      <point x="471" y="599"/>
    </contour>
  </outline>
</glyph>
<glyph name="copyright" format="1">
  <advance width="1880"/>
  <unicode hex="00A9"/>
  <outline>
    <contour>
      <point x="965" y="249" type="curve" smooth="yes"/>
      <point x="670" y="249"/>
      <point x="498" y="473"/>
      <point x="498" y="729" type="curve" smooth="yes"/>
      <point x="498" y="1042"/>
      <point x="706" y="1208"/>
      <point x="975" y="1208" type="curve" smooth="yes"/>
      <point x="1085" y="1208"/>
      <point x="1180" y="1174"/>
      <point x="1258" y="1105" type="curve"/>
      <point x="1228" y="985" type="line"/>
      <point x="1158" y="1048"/>
      <point x="1072" y="1080"/>
      <point x="969" y="1080" type="curve" smooth="yes"/>
      <point x="759" y="1080"/>
      <point x="651" y="920"/>
      <point x="651" y="733" type="curve" smooth="yes"/>
      <point x="651" y="504"/>
      <point x="784" y="380"/>
      <point x="995" y="380" type="curve" smooth="yes"/>
      <point x="1092" y="380"/>
      <point x="1166" y="411"/>
      <point x="1224" y="460" type="curve"/>
      <point x="1261" y="339" type="line"/>
      <point x="1178" y="279"/>
      <point x="1080" y="249"/>
    </contour>
    <contour>
      <point x="940" y="1480" type="curve" smooth="yes"/>
      <point x="1354" y="1480"/>
      <point x="1692" y="1141"/>
      <point x="1692" y="727" type="curve" smooth="yes"/>
      <point x="1692" y="314"/>
      <point x="1354" y="-25"/>
      <point x="940" y="-25" type="curve" smooth="yes"/>
      <point x="526" y="-25"/>
      <point x="188" y="314"/>
      <point x="188" y="727" type="curve" smooth="yes"/>
      <point x="188" y="1141"/>
      <point x="526" y="1480"/>
    </contour>
    <contour>
      <point x="939" y="80" type="curve" smooth="yes"/>
      <point x="1290" y="80"/>
      <point x="1568" y="374"/>
      <point x="1568" y="725" type="curve" smooth="yes"/>
      <point x="1568" y="1077"/>
      <point x="1290" y="1371"/>
      <point x="939" y="1371" type="curve" smooth="yes"/>
      <point x="587" y="1371"/>
      <point x="309" y="1077"/>
      <point x="309" y="725" type="curve" smooth="yes"/>
      <point x="309" y="374"/>
      <point x="587" y="80"/>
    </contour>
  </outline>
</glyph>
<glyph name="guillemotleft" format="1">
  <advance width="965"/>
  <unicode hex="00AB"/>
  <outline>
    <contour>
      <point x="355" y="173" type="line"/>
      <point x="87" y="543" type="line"/>
      <point x="361" y="916" type="line"/>
      <point x="514" y="916" type="line"/>
      <point x="257" y="543" type="line"/>
      <point x="506" y="173" type="line"/>
    </contour>
    <contour>
      <point x="714" y="173" type="line"/>
      <point x="452" y="543" type="line"/>
      <point x="719" y="916" type="line"/>
      <point x="878" y="916" type="line"/>
      <point x="615" y="543" type="line"/>
      <point x="871" y="173" type="line"/>
    </contour>
  </outline>
</glyph>
<glyph name="degree" format="1">
  <advance width="1052"/>
  <unicode hex="00B0"/>
  <outline>
    <contour>
      <point x="526" y="936" type="curve" smooth="yes"/>
      <point x="662" y="936"/>
      <point x="730" y="1043"/>
      <point x="730" y="1149" type="curve" smooth="yes"/>
      <point x="730" y="1283"/>
      <point x="635" y="1359"/>
      <point x="526" y="1359" type="curve" smooth="yes"/>
      <point x="391" y="1359"/>
      <point x="322" y="1255"/>
      <point x="322" y="1149" type="curve" smooth="yes"/>
      <point x="322" y="1015"/>
      <point x="409" y="936"/>
    </contour>
    <contour>
      <point x="526" y="815" type="curve" smooth="yes"/>
      <point x="321" y="815"/>
      <point x="190" y="975"/>
      <point x="190" y="1148" type="curve" smooth="yes"/>
      <point x="190" y="1365"/>
      <point x="361" y="1480"/>
      <point x="526" y="1480" type="curve" smooth="yes"/>
      <point x="733" y="1480"/>
      <point x="862" y="1322"/>
      <point x="862" y="1148" type="curve" smooth="yes"/>
      <point x="862" y="930"/>
      <point x="689" y="815"/>
    </contour>
  </outline>
</glyph>
<glyph name="uni00B2" format="1">
  <advance width="927"/>
  <unicode hex="00B2"/>
  <outline>
    <contour>
      <point x="188" y="604" type="line"/>
      <point x="188" y="715" type="line"/>
      <point x="294" y="812"/>
      <point x="400" y="908"/>
      <point x="489" y="1006" type="curve" smooth="yes"/>
      <point x="526" y="1047"/>
      <point x="554" y="1084"/>
      <point x="575" y="1118" type="curve" smooth="yes"/>
      <point x="596" y="1152"/>
      <point x="606" y="1183"/>
      <point x="606" y="1211" type="curve" smooth="yes"/>
      <point x="606" y="1286"/>
      <point x="545" y="1323"/>
      <point x="466" y="1323" type="curve" smooth="yes"/>
      <point x="371" y="1323"/>
      <point x="314" y="1262"/>
      <point x="281" y="1192" type="curve"/>
      <point x="196" y="1270" type="line"/>
      <point x="239" y="1370"/>
      <point x="334" y="1440"/>
      <point x="472" y="1440" type="curve" smooth="yes"/>
      <point x="590" y="1440"/>
      <point x="676" y="1388"/>
      <point x="715" y="1307" type="curve" smooth="yes"/>
      <point x="728" y="1279"/>
      <point x="735" y="1248"/>
      <point x="735" y="1213" type="curve" smooth="yes"/>
      <point x="735" y="1108"/>
      <point x="683" y="1033"/>
      <point x="629" y="968" type="curve" smooth="yes"/>
      <point x="555" y="879"/>
      <point x="462" y="802"/>
      <point x="370" y="722" type="curve"/>
      <point x="734" y="722" type="line"/>
      <point x="734" y="604" type="line"/>
    </contour>
  </outline>
</glyph>
<glyph name="paragraph" format="1">
  <advance width="1150"/>
  <unicode hex="00B6"/>
  <outline>
    <contour>
      <point x="468" y="0" type="line"/>
      <point x="468" y="830" type="line"/>
      <point x="253" y="830"/>
      <point x="137" y="946"/>
      <point x="137" y="1134" type="curve" smooth="yes"/>
      <point x="137" y="1398"/>
      <point x="389" y="1455"/>
      <point x="642" y="1455" type="curve" smooth="yes"/>
      <point x="1023" y="1455" type="line"/>
      <point x="1023" y="1331" type="line"/>
      <point x="936" y="1331" type="line"/>
      <point x="936" y="0" type="line"/>
      <point x="807" y="0" type="line"/>
      <point x="807" y="1331" type="line"/>
      <point x="606" y="1331" type="line"/>
      <point x="606" y="0" type="line"/>
    </contour>
  </outline>
</glyph>
<glyph name="onequarter" format="1">
  <advance width="1812"/>
  <unicode hex="00BC"/>
  <outline>
    <contour>
      <point x="286" y="0" type="line"/>
      <point x="1119" y="1456" type="line"/>
      <point x="1268" y="1456" type="line"/>
      <point x="437" y="0" type="line"/>
    </contour>
    <contour>
      <point x="169" y="426" type="line"/>
      <point x="169" y="1351" type="line"/>
      <point x="84" y="1351" type="line"/>
      <point x="84" y="1456" type="line"/>
      <point x="310" y="1456" type="line"/>
      <point x="310" y="426" type="line"/>
    </contour>
    <contour>
      <point x="1537" y="617" type="line"/>
      <point x="1537" y="363" type="line"/>
      <point x="1726" y="363" type="line"/>
      <point x="1726" y="264" type="line"/>
      <point x="1538" y="264" type="line"/>
      <point x="1538" y="0" type="line"/>
      <point x="1406" y="0" type="line"/>
      <point x="1406" y="264" type="line"/>
      <point x="967" y="264" type="line"/>
      <point x="967" y="355" type="line"/>
      <point x="1328" y="1026" type="line"/>
      <point x="1465" y="1026" type="line"/>
      <point x="1128" y="363" type="line"/>
      <point x="1406" y="363" type="line"/>
      <point x="1406" y="617" type="line"/>
    </contour>
  </outline>
</glyph>
<glyph name="Eth" format="1">
  <advance width="1518"/>
  <unicode hex="00D0"/>
  <outline>
    <component base="D"/>
    <contour>
      <point x="43" y="800" type="line"/>
      <point x="610" y="800" type="line"/>
      <point x="610" y="672" type="line"/>
      <point x="43" y="672" type="line"/>
    </contour>
  </outline>
</glyph>
<glyph name="oslash" format="1">
  <advance width="1216"/>
  <unicode hex="00F8"/>
  <outline>
    <component base="o"/>
    <contour>
      <point x="353" y="-261" type="line"/>
      <point x="257" y="-229" type="line"/>
      <point x="869" y="1277" type="line"/>
      <point x="969" y="1245" type="line"/>
    </contour>
  </outline>
</glyph>
<glyph name="gcommaaccent" format="1">
  <advance width="1129"/>
  <unicode hex="0123"/>
  <outline>
    <contour>
      <point x="524" y="-494" type="curve" smooth="yes"/>
      <point x="427" y="-494"/>
      <point x="299" y="-470"/>
      <point x="199" y="-433" type="curve"/>
      <point x="218" y="-280" type="line"/>
      <point x="308" y="-326"/>
      <point x="426" y="-357"/>
      <point x="511" y="-357" type="curve" smooth="yes"/>
      <point x="712" y="-357"/>
      <point x="845" y="-232"/>
      <point x="845" y="-44" type="curve" smooth="yes"/>
      <point x="845" y="133" type="line"/>
      <point x="773" y="39"/>
      <point x="642" y="-22"/>
      <point x="506" y="-22" type="curve" smooth="yes"/>
      <point x="266" y="-22"/>
      <point x="100" y="162"/>
      <point x="100" y="438" type="curve" smooth="yes"/>
      <point x="100" y="804"/>
      <point x="328" y="1048"/>
      <point x="660" y="1048" type="curve" smooth="yes"/>
      <point x="789" y="1048"/>
      <point x="929" y="1014"/>
      <point x="1009" y="962" type="curve"/>
      <point x="1009" y="-23" type="line" smooth="yes"/>
      <point x="1009" y="-306"/>
      <point x="811" y="-494"/>
    </contour>
    <contour>
      <point x="530" y="116" type="curve" smooth="yes"/>
      <point x="719" y="116"/>
      <point x="845" y="261"/>
      <point x="845" y="453" type="curve" smooth="yes"/>
      <point x="845" y="872" type="line"/>
      <point x="805" y="893"/>
      <point x="730" y="907"/>
      <point x="657" y="907" type="curve" smooth="yes"/>
      <point x="425" y="907"/>
      <point x="270" y="723"/>
      <point x="270" y="448" type="curve" smooth="yes"/>
      <point x="270" y="249"/>
      <point x="374" y="116"/>
    </contour>
    <contour>
      <point x="426" y="1162" type="line"/>
      <point x="583" y="1625" type="line"/>
      <point x="709" y="1625" type="line"/>
      <point x="606" y="1162" type="line"/>
    </contour>
  </outline>
</glyph>
<glyph name="dotlessi" format="1">
  <advance width="633"/>
  <unicode hex="0131"/>
  <outline>
    <contour>
      <point x="659" y="26" type="line"/>
      <point x="589" y="-3"/>
      <point x="520" y="-18"/>
      <point x="456" y="-18" type="curve" smooth="yes"/>
      <point x="308" y="-18"/>
      <point x="193" y="66"/>
      <point x="193" y="262" type="curve" smooth="yes"/>
      <point x="193" y="1026" type="line"/>
      <point x="357" y="1026" type="line"/>
      <point x="357" y="267" type="line" smooth="yes"/>
      <point x="357" y="149"/>
      <point x="411" y="111"/>
      <point x="484" y="111" type="curve" smooth="yes"/>
      <point x="530" y="111"/>
      <point x="583" y="126"/>
      <point x="636" y="145" type="curve"/>
    </contour>
  </outline>
</glyph>
<glyph name="kgreenlandic" format="1">
  <advance width="1071"/>
  <unicode hex="0138"/>
  <outline>
    <contour>
      <point x="188" y="0" type="line"/>
      <point x="188" y="1026" type="line"/>
      <point x="353" y="1026" type="line"/>
      <point x="353" y="557" type="line"/>
      <point x="800" y="1026" type="line"/>
      <point x="1024" y="1026" type="line"/>
      <point x="508" y="512" type="line"/>
      <point x="691" y="338"/>
      <point x="871" y="174"/>
      <point x="1062" y="0" type="curve"/>
      <point x="843" y="0" type="line"/>
      <point x="353" y="471" type="line"/>
      <point x="353" y="0" type="line"/>
    </contour>
  </outline>
</glyph>
<glyph name="OE" format="1">
  <advance width="1998"/>
  <unicode hex="0152"/>
  <outline>
    <component base="E" xOffset="807"/>
    <contour>
      <point x="1007" y="1292" type="line"/>
      <point x="946" y="1317"/>
      <point x="880" y="1330"/>
      <point x="813" y="1330" type="curve" smooth="yes"/>
      <point x="546" y="1330"/>
      <point x="300" y="1128"/>
      <point x="300" y="729" type="curve" smooth="yes"/>
      <point x="300" y="330"/>
      <point x="546" y="126"/>
      <point x="813" y="126" type="curve" smooth="yes"/>
      <point x="880" y="126"/>
      <point x="946" y="139"/>
      <point x="1007" y="165" type="curve"/>
      <point x="1007" y="0" type="line"/>
      <point x="948" y="-16"/>
      <point x="883" y="-24"/>
      <point x="813" y="-24" type="curve" smooth="yes"/>
      <point x="358" y="-24"/>
      <point x="116" y="336"/>
      <point x="116" y="728" type="curve" smooth="yes"/>
      <point x="116" y="1122"/>
      <point x="358" y="1480"/>
      <point x="813" y="1480" type="curve" smooth="yes"/>
      <point x="883" y="1480"/>
      <point x="948" y="1472"/>
      <point x="1007" y="1456" type="curve"/>
    </contour>
  </outline>
</glyph>
<glyph name="dotlessj" format="1">
  <advance width="558"/>
  <unicode hex="0237"/>
  <outline>
    <contour>
      <point x="101" y="-464" type="curve" smooth="yes"/>
      <point x="44" y="-464"/>
      <point x="-17" y="-452"/>
      <point x="-50" y="-443" type="curve"/>
      <point x="-35" y="-311" type="line"/>
      <point x="-35" y="-311"/>
      <point x="20" y="-329"/>
      <point x="78" y="-329" type="curve" smooth="yes"/>
      <point x="189" y="-329"/>
      <point x="216" y="-269"/>
      <point x="216" y="-76" type="curve" smooth="yes"/>
      <point x="216" y="1026" type="line"/>
      <point x="381" y="1026" type="line"/>
      <point x="381" y="-84" type="line" smooth="yes"/>
      <point x="381" y="-360"/>
      <point x="302" y="-464"/>
    </contour>
  </outline>
</glyph>
<glyph name="circumflex" format="1">
  <advance width="709"/>
  <unicode hex="02C6"/>
  <outline>
    <contour>
      <point x="273" y="1456" type="line"/>
      <point x="430" y="1456" type="line"/>
      <point x="659" y="1132" type="line"/>
      <point x="527" y="1132" type="line"/>
      <point x="349" y="1348" type="line"/>
      <point x="171" y="1132" type="line"/>
      <point x="45" y="1132" type="line"/>
    </contour>
  </outline>
</glyph>
<glyph name="hungarumlaut" format="1">
  <advance width="972"/>
  <unicode hex="02DD"/>
  <outline>
    <contour>
      <point x="172" y="1143" type="line"/>
      <point x="389" y="1456" type="line"/>
      <point x="559" y="1456" type="line"/>
      <point x="290" y="1143" type="line"/>
    </contour>
    <contour>
      <point x="438" y="1143" type="line"/>
      <point x="652" y="1456" type="line"/>
      <point x="828" y="1456" type="line"/>
      <point x="553" y="1143" type="line"/>
    </contour>
  </outline>
</glyph>
<glyph name="dotaccentcmb" format="1">
  <advance width="534"/>
  <unicode hex="0307"/>
  <outline>
    <contour>
      <point x="194" y="1246" type="line"/>
      <point x="194" y="1409" type="line"/>
      <point x="354" y="1409" type="line"/>
      <point x="354" y="1246" type="line"/>
    </contour>
  </outline>
</glyph>
<glyph name="uni03A9" format="1">
  <advance width="1572"/>
  <unicode hex="03A9"/>
  <outline>
    <contour>
      <point x="114" y="0" type="line"/>
      <point x="103" y="138" type="line"/>
      <point x="439" y="137" type="line"/>
      <point x="262" y="273"/>
      <point x="124" y="524"/>
      <point x="124" y="807" type="curve" smooth="yes"/>
      <point x="124" y="1236"/>
      <point x="383" y="1480"/>
      <point x="798" y="1480" type="curve" smooth="yes"/>
      <point x="1212" y="1480"/>
      <point x="1451" y="1221"/>
      <point x="1451" y="803" type="curve" smooth="yes"/>
      <point x="1451" y="497"/>
      <point x="1297" y="273"/>
      <point x="1131" y="137" type="curve"/>
      <point x="1453" y="138" type="line"/>
      <point x="1444" y="0" type="line"/>
      <point x="937" y="0" type="line"/>
      <point x="933" y="121" type="line"/>
      <point x="1123" y="253"/>
      <point x="1273" y="509"/>
      <point x="1273" y="785" type="curve" smooth="yes"/>
      <point x="1273" y="1126"/>
      <point x="1094" y="1330"/>
      <point x="794" y="1330" type="curve" smooth="yes"/>
      <point x="468" y="1330"/>
      <point x="303" y="1093"/>
      <point x="303" y="790" type="curve" smooth="yes"/>
      <point x="303" y="477"/>
      <point x="454" y="246"/>
      <point x="638" y="121" type="curve"/>
      <point x="641" y="0" type="line"/>
    </contour>
  </outline>
</glyph>
<glyph name="bullet" format="1">
  <advance width="1029"/>
  <unicode hex="2022"/>
  <outline>
    <contour>
      <point x="512" y="427" type="curve" smooth="yes"/>
      <point x="311" y="427"/>
      <point x="190" y="574"/>
      <point x="190" y="736" type="curve" smooth="yes"/>
      <point x="190" y="940"/>
      <point x="360" y="1052"/>
      <point x="517" y="1052" type="curve" smooth="yes"/>
      <point x="719" y="1052"/>
      <point x="839" y="901"/>
      <point x="839" y="743" type="curve" smooth="yes"/>
      <point x="839" y="546"/>
      <point x="703" y="427"/>
    </contour>
  </outline>
</glyph>
<glyph name="guilsinglright" format="1">
  <advance width="652"/>
  <unicode hex="203A"/>
  <outline>
    <contour>
      <point x="306" y="914" type="line"/>
      <point x="577" y="542" type="line"/>
      <point x="300" y="171" type="line"/>
      <point x="143" y="171" type="line"/>
      <point x="405" y="542" type="line"/>
      <point x="151" y="914" type="line"/>
    </contour>
  </outline>
</glyph>
<glyph name="product" format="1">
  <advance width="1549"/>
  <unicode hex="220F"/>
  <outline>
    <contour>
      <point x="301" y="0" type="line"/>
      <point x="301" y="1311" type="line"/>
      <point x="100" y="1311" type="line"/>
      <point x="100" y="1456" type="line"/>
      <point x="1449" y="1456" type="line"/>
      <point x="1449" y="1311" type="line"/>
      <point x="1270" y="1311" type="line"/>
      <point x="1270" y="0" type="line"/>
      <point x="1092" y="0" type="line"/>
      <point x="1092" y="1311" type="line"/>
      <point x="476" y="1311" type="line"/>
      <point x="476" y="0" type="line"/>
    </contour>
  </outline>
</glyph>
<glyph name="notequal" format="1">
  <advance width="1339"/>
  <unicode hex="2260"/>
  <outline>
    <contour>
      <point x="465" y="46" type="line"/>
      <point x="345" y="64" type="line"/>
      <point x="471" y="325" type="line"/>
      <point x="170" y="325" type="line"/>
      <point x="170" y="445" type="line"/>
      <point x="529" y="445" type="line"/>
      <point x="670" y="728" type="line"/>
      <point x="170" y="728" type="line"/>
      <point x="170" y="849" type="line"/>
      <point x="725" y="849" type="line"/>
      <point x="856" y="1123" type="line"/>
      <point x="978" y="1105" type="line"/>
      <point x="854" y="849" type="line"/>
      <point x="1160" y="849" type="line"/>
      <point x="1162" y="728" type="line"/>
      <point x="798" y="728" type="line"/>
      <point x="656" y="445" type="line"/>
      <point x="1162" y="445" type="line"/>
      <point x="1162" y="325" type="line"/>
      <point x="599" y="325" type="line"/>
    </contour>
  </outline>
</glyph>
<glyph name="greaterequal" format="1">
  <advance width="1339"/>
  <unicode hex="2265"/>
  <outline>
    <contour>
      <point x="171" y="0" type="line"/>
      <point x="171" y="122" type="line"/>
      <point x="1160" y="122" type="line"/>
      <point x="1160" y="0" type="line"/>
    </contour>
    <contour>
      <point x="206" y="1252" type="line"/>
      <point x="1141" y="779" type="line"/>
      <point x="1141" y="699" type="line"/>
      <point x="202" y="249" type="line"/>
      <point x="202" y="390" type="line"/>
      <point x="963" y="738" type="line"/>
      <point x="206" y="1112" type="line"/>
    </contour>
  </outline>
</glyph>
<glyph name="nine.alt" format="1">
  <advance width="1176"/>
  <outline>
    <contour>
      <point x="517" y="-24" type="curve" smooth="yes"/>
      <point x="371" y="-24"/>
      <point x="280" y="21"/>
      <point x="193" y="104" type="curve"/>
      <point x="247" y="232" type="line"/>
      <point x="318" y="155"/>
      <point x="409" y="118"/>
      <point x="520" y="118" type="curve" smooth="yes"/>
      <point x="801" y="118"/>
      <point x="905" y="409"/>
      <point x="905" y="711" type="curve" smooth="yes"/>
      <point x="905" y="735" type="line"/>
      <point x="836" y="620"/>
      <point x="720" y="561"/>
      <point x="547" y="561" type="curve" smooth="yes"/>
      <point x="264" y="561"/>
      <point x="98" y="754"/>
      <point x="98" y="1012" type="curve" smooth="yes"/>
      <point x="98" y="1317"/>
      <point x="311" y="1480"/>
      <point x="581" y="1480" type="curve" smooth="yes"/>
      <point x="950" y="1480"/>
      <point x="1080" y="1192"/>
      <point x="1080" y="786" type="curve" smooth="yes"/>
      <point x="1080" y="335"/>
      <point x="885" y="-24"/>
    </contour>
    <contour>
      <point x="572" y="701" type="curve" smooth="yes"/>
      <point x="768" y="701"/>
      <point x="893" y="825"/>
      <point x="893" y="999" type="curve" smooth="yes"/>
      <point x="893" y="1211"/>
      <point x="759" y="1340"/>
      <point x="573" y="1340" type="curve" smooth="yes"/>
      <point x="378" y="1340"/>
      <point x="274" y="1193"/>
      <point x="274" y="1017" type="curve" smooth="yes"/>
      <point x="274" y="820"/>
      <point x="381" y="701"/>
    </contour>
  </outline>
</glyph>
